<svg xmlns="http://www.w3.org/2000/svg" viewBox="0 0 320 160" role="img" aria-label="Client portal overview">
  <defs>
    <linearGradient id="cliBg" x1="0" y1="0" x2="0" y2="1">
      <stop offset="0%" stop-color="#F7F4EF"/>
      <stop offset="100%" stop-color="#EEE8DE"/>
    </linearGradient>
  </defs>
  <rect width="320" height="160" rx="12" fill="url(#cliBg)"/>
  <!-- phone frame -->
  <rect x="36" y="14" width="100" height="134" rx="14" fill="#2A2017"/>
  <rect x="42" y="22" width="88" height="118" rx="8" fill="#FFFFFF"/>
  <!-- phone header -->
  <rect x="42" y="22" width="88" height="16" rx="8" fill="#A8956B"/>
  <rect x="42" y="32" width="88" height="6" fill="#A8956B"/>
  <text x="86" y="33" text-anchor="middle" font-family="system-ui,sans-serif" font-size="7" fill="#FFFFFF" font-weight="700">Stajnia Pegaz</text>
  <!-- booking card -->
  <rect x="48" y="46" width="76" height="28" rx="4" fill="#F7F4EF" stroke="#E0D7C8"/>
  <text x="52" y="56" font-family="system-ui,sans-serif" font-size="6" fill="#9A8A78">NAJBLIŻSZA REZERWACJA</text>
  <text x="52" y="66" font-family="system-ui,sans-serif" font-size="8" fill="#6c5640" font-weight="700">Pn · 17:00</text>
  <text x="52" y="72" font-family="system-ui,sans-serif" font-size="6" fill="#9A8A78">Lekcja · Anna K.</text>
  <!-- passes -->
  <rect x="48" y="78" width="76" height="20" rx="4" fill="#A8956B"/>
  <text x="52" y="86" font-family="system-ui,sans-serif" font-size="6" fill="#FFFFFF">KARNET</text>
  <text x="52" y="94" font-family="system-ui,sans-serif" font-size="8" fill="#FFFFFF" font-weight="700">7 / 10 lekcji</text>
  <!-- horse mini -->
  <rect x="48" y="102" width="76" height="24" rx="4" fill="#F7F4EF" stroke="#E0D7C8"/>
  <circle cx="56" cy="114" r="6" fill="#A8956B"/>
  <text x="66" y="113" font-family="system-ui,sans-serif" font-size="7" fill="#6c5640" font-weight="600">Romeo</text>
  <text x="66" y="121" font-family="system-ui,sans-serif" font-size="6" fill="#9A8A78">box 12 · Anna K.</text>
  <!-- desktop side -->
  <rect x="156" y="40" width="148" height="100" rx="6" fill="#FFFFFF" stroke="#C8B8A4"/>
  <rect x="156" y="40" width="148" height="14" rx="6" fill="#846C54"/>
  <rect x="156" y="48" width="148" height="6" fill="#846C54"/>
  <text x="162" y="50" font-family="system-ui,sans-serif" font-size="7" fill="#FFFFFF" font-weight="700">Portal klienta · web</text>
  <rect x="164" y="62" width="64" height="28" rx="3" fill="#F7F4EF" stroke="#E0D7C8"/>
  <rect x="232" y="62" width="64" height="28" rx="3" fill="#F7F4EF" stroke="#E0D7C8"/>
  <rect x="164" y="94" width="64" height="28" rx="3" fill="#F7F4EF" stroke="#E0D7C8"/>
  <rect x="232" y="94" width="64" height="28" rx="3" fill="#F7F4EF" stroke="#E0D7C8"/>
  <rect x="166" y="66" width="32" height="3" rx="1" fill="#A8956B"/>
  <rect x="166" y="74" width="44" height="3" rx="1" fill="#9A8A78"/>
  <rect x="166" y="80" width="38" height="3" rx="1" fill="#9A8A78"/>
  <rect x="234" y="66" width="32" height="3" rx="1" fill="#A8956B"/>
  <rect x="234" y="74" width="44" height="3" rx="1" fill="#9A8A78"/>
  <rect x="234" y="80" width="38" height="3" rx="1" fill="#9A8A78"/>
  <rect x="166" y="98" width="32" height="3" rx="1" fill="#A8956B"/>
  <rect x="166" y="106" width="44" height="3" rx="1" fill="#9A8A78"/>
  <rect x="166" y="112" width="38" height="3" rx="1" fill="#9A8A78"/>
  <rect x="234" y="98" width="32" height="3" rx="1" fill="#A8956B"/>
  <rect x="234" y="106" width="44" height="3" rx="1" fill="#9A8A78"/>
  <rect x="234" y="112" width="38" height="3" rx="1" fill="#9A8A78"/>
</svg>
