<svg xmlns="http://www.w3.org/2000/svg" viewBox="0 0 320 160" role="img" aria-label="Vet / specialist overview">
  <defs>
    <linearGradient id="specBg" x1="0" y1="0" x2="0" y2="1">
      <stop offset="0%" stop-color="#F7F4EF"/>
      <stop offset="100%" stop-color="#EEE8DE"/>
    </linearGradient>
  </defs>
  <rect width="320" height="160" rx="12" fill="url(#specBg)"/>
  <rect x="16" y="16" width="288" height="128" rx="8" fill="#FFFFFF" stroke="#C8B8A4"/>
  <rect x="16" y="16" width="288" height="22" rx="8" fill="#846C54"/>
  <rect x="16" y="30" width="288" height="8" fill="#846C54"/>
  <text x="28" y="30" font-family="system-ui,sans-serif" font-size="10" fill="#FFFFFF" font-weight="600">Karta zdrowia konia</text>
  <!-- horse card -->
  <rect x="28" y="50" width="80" height="80" rx="6" fill="#F7F4EF" stroke="#E0D7C8"/>
  <circle cx="68" cy="78" r="18" fill="#A8956B"/>
  <text x="68" y="118" text-anchor="middle" font-family="system-ui,sans-serif" font-size="8" fill="#6c5640" font-weight="600">Romeo</text>
  <text x="68" y="128" text-anchor="middle" font-family="system-ui,sans-serif" font-size="7" fill="#9A8A78">hanowerski</text>
  <!-- record list -->
  <g font-family="system-ui,sans-serif">
    <rect x="120" y="50" width="180" height="22" rx="4" fill="#F7F4EF" stroke="#E0D7C8"/>
    <circle cx="130" cy="61" r="4" fill="#A8956B"/>
    <text x="140" y="60" font-size="8" fill="#6c5640" font-weight="600">Szczepienie · gryp.+tężec</text>
    <text x="140" y="69" font-size="7" fill="#9A8A78">2026-05-04 · 14:00</text>

    <rect x="120" y="76" width="180" height="22" rx="4" fill="#F7F4EF" stroke="#E0D7C8"/>
    <circle cx="130" cy="87" r="4" fill="#6c5640"/>
    <text x="140" y="86" font-size="8" fill="#6c5640" font-weight="600">Wizyta · kontrola kulawizny</text>
    <text x="140" y="95" font-size="7" fill="#9A8A78">2026-04-21 · 09:30</text>

    <rect x="120" y="102" width="180" height="22" rx="4" fill="#F7F4EF" stroke="#E0D7C8"/>
    <circle cx="130" cy="113" r="4" fill="#A8956B"/>
    <text x="140" y="112" font-size="8" fill="#6c5640" font-weight="600">Odrobaczanie · Equimax</text>
    <text x="140" y="121" font-size="7" fill="#9A8A78">2026-03-15 · 12:00</text>
  </g>
  <!-- medical cross icon -->
  <g transform="translate(286,52)">
    <rect width="16" height="16" rx="3" fill="#A8956B"/>
    <rect x="6.5" y="3" width="3" height="10" fill="#FFFFFF"/>
    <rect x="3" y="6.5" width="10" height="3" fill="#FFFFFF"/>
  </g>
</svg>
