<svg xmlns="http://www.w3.org/2000/svg" viewBox="0 0 320 160" role="img" aria-label="Employee / instructor overview">
  <defs>
    <linearGradient id="empBg" x1="0" y1="0" x2="0" y2="1">
      <stop offset="0%" stop-color="#F7F4EF"/>
      <stop offset="100%" stop-color="#EEE8DE"/>
    </linearGradient>
  </defs>
  <rect width="320" height="160" rx="12" fill="url(#empBg)"/>
  <!-- calendar mockup -->
  <rect x="16" y="16" width="288" height="128" rx="8" fill="#FFFFFF" stroke="#C8B8A4"/>
  <rect x="16" y="16" width="288" height="22" rx="8" fill="#846C54"/>
  <rect x="16" y="30" width="288" height="8" fill="#846C54"/>
  <text x="28" y="30" font-family="system-ui,sans-serif" font-size="10" fill="#FFFFFF" font-weight="600">Kalendarz · Tydzień</text>
  <!-- days header -->
  <g font-family="system-ui,sans-serif" font-size="8" fill="#6c5640">
    <text x="52" y="50">Pn</text><text x="92" y="50">Wt</text><text x="132" y="50">Śr</text><text x="172" y="50">Cz</text><text x="212" y="50">Pt</text><text x="252" y="50">Sb</text><text x="284" y="50">Nd</text>
  </g>
  <!-- time column -->
  <g font-family="system-ui,sans-serif" font-size="7" fill="#9A8A78">
    <text x="22" y="68">08</text><text x="22" y="84">10</text><text x="22" y="100">12</text><text x="22" y="116">14</text><text x="22" y="132">16</text>
  </g>
  <!-- grid lines -->
  <g stroke="#EEE8DE">
    <line x1="40" y1="56" x2="304" y2="56"/>
    <line x1="40" y1="72" x2="304" y2="72"/>
    <line x1="40" y1="88" x2="304" y2="88"/>
    <line x1="40" y1="104" x2="304" y2="104"/>
    <line x1="40" y1="120" x2="304" y2="120"/>
    <line x1="40" y1="136" x2="304" y2="136"/>
  </g>
  <!-- events -->
  <rect x="46" y="60" width="34" height="20" rx="3" fill="#A8956B"/>
  <rect x="86" y="76" width="34" height="28" rx="3" fill="#6c5640"/>
  <rect x="126" y="60" width="34" height="16" rx="3" fill="#A8956B"/>
  <rect x="166" y="92" width="34" height="20" rx="3" fill="#A8956B"/>
  <rect x="206" y="68" width="34" height="36" rx="3" fill="#6c5640"/>
  <rect x="246" y="80" width="34" height="20" rx="3" fill="#A8956B"/>
  <!-- horse silhouette -->
  <g transform="translate(266,118)" fill="#846C54">
    <path d="M0 12 L4 4 L10 2 L14 0 L18 2 L20 6 L22 8 L26 8 L26 14 L22 14 L20 12 L18 14 L14 14 L12 18 L8 18 L8 14 L4 14 L0 14 Z"/>
  </g>
</svg>
